<mxfile host="app.diagrams.net" modified="2023-01-11T05:07:36.361Z" agent="5.0 (Macintosh; Intel Mac OS X 10_15_7) AppleWebKit/537.36 (KHTML, like Gecko) Chrome/108.0.0.0 Safari/537.36" version="20.6.2" etag="L5wSMk8jQZHO5NI7bNsL" type="github">
  <diagram id="kID9qTkGEZ8yGBSbg_5T" name="Page-1">
    <mxGraphModel dx="998" dy="588" grid="1" gridSize="10" guides="1" tooltips="1" connect="1" arrows="1" fold="1" page="1" pageScale="1" pageWidth="827" pageHeight="1169" math="0" shadow="0">
      <root>
        <mxCell id="0" />
        <mxCell id="1" parent="0" />
        <mxCell id="Omq8vZw3U8IZ6o1q2XBp-1" value="10000核包年包月资源" style="rounded=0;whiteSpace=wrap;html=1;" vertex="1" parent="1">
          <mxGeometry x="180" y="430" width="620" height="80" as="geometry" />
        </mxCell>
        <mxCell id="Omq8vZw3U8IZ6o1q2XBp-2" value="presto 512 cu&lt;br&gt;2~10" style="rounded=1;whiteSpace=wrap;html=1;" vertex="1" parent="1">
          <mxGeometry x="180" y="390" width="120" height="60" as="geometry" />
        </mxCell>
        <mxCell id="Omq8vZw3U8IZ6o1q2XBp-3" value="sparksql 512 cu" style="rounded=1;whiteSpace=wrap;html=1;" vertex="1" parent="1">
          <mxGeometry x="320" y="390" width="120" height="60" as="geometry" />
        </mxCell>
      </root>
    </mxGraphModel>
  </diagram>
</mxfile>
